<mxfile host="app.diagrams.net" agent="Mozilla/5.0 (Macintosh; Intel Mac OS X 10_15_7) AppleWebKit/537.36 (KHTML, like Gecko) Chrome/132.0.0.0 Safari/537.36 Edg/132.0.0.0" version="26.0.10">
  <diagram name="PÃ¡gina-1" id="LtpQmx25FQQOxHGlJwBG">
    <mxGraphModel dx="1094" dy="559" grid="1" gridSize="10" guides="1" tooltips="1" connect="1" arrows="1" fold="1" page="1" pageScale="1" pageWidth="827" pageHeight="1169" math="0" shadow="0">
      <root>
        <mxCell id="0" />
        <mxCell id="1" parent="0" />
        <mxCell id="Bv-M9xPKziIz36aq1z2k-1" value="&lt;font style=&quot;font-size: 12px;&quot; data-font-src=&quot;https://fonts.googleapis.com/css?family=Roboto+Condensed&quot; face=&quot;Roboto Condensed&quot;&gt;deposit-notifications&lt;/font&gt;" style="outlineConnect=0;dashed=0;verticalLabelPosition=bottom;verticalAlign=top;align=center;html=1;shape=mxgraph.aws3.lambda_function;fillColor=#F58534;gradientColor=none;" vertex="1" parent="1">
          <mxGeometry x="70" y="270" width="50" height="50" as="geometry" />
        </mxCell>
        <mxCell id="Bv-M9xPKziIz36aq1z2k-21" style="edgeStyle=orthogonalEdgeStyle;rounded=0;orthogonalLoop=1;jettySize=auto;html=1;" edge="1" parent="1" source="Bv-M9xPKziIz36aq1z2k-2" target="Bv-M9xPKziIz36aq1z2k-3">
          <mxGeometry relative="1" as="geometry" />
        </mxCell>
        <mxCell id="Bv-M9xPKziIz36aq1z2k-35" value="&lt;font style=&quot;font-size: 8px;&quot; data-font-src=&quot;https://fonts.googleapis.com/css?family=Roboto+Condensed&quot; face=&quot;Roboto Condensed&quot;&gt;HTTPS: 443&lt;br&gt;Token HMAC&lt;/font&gt;" style="edgeLabel;html=1;align=center;verticalAlign=middle;resizable=0;points=[];" vertex="1" connectable="0" parent="Bv-M9xPKziIz36aq1z2k-21">
          <mxGeometry x="-0.2392" y="1" relative="1" as="geometry">
            <mxPoint as="offset" />
          </mxGeometry>
        </mxCell>
        <mxCell id="Bv-M9xPKziIz36aq1z2k-58" style="edgeStyle=orthogonalEdgeStyle;rounded=0;orthogonalLoop=1;jettySize=auto;html=1;" edge="1" parent="1" source="Bv-M9xPKziIz36aq1z2k-2" target="Bv-M9xPKziIz36aq1z2k-12">
          <mxGeometry relative="1" as="geometry" />
        </mxCell>
        <mxCell id="Bv-M9xPKziIz36aq1z2k-2" value="&lt;font data-font-src=&quot;https://fonts.googleapis.com/css?family=Roboto+Condensed&quot; face=&quot;Roboto Condensed&quot;&gt;deposit-service&lt;/font&gt;" style="outlineConnect=0;fontColor=#232F3E;gradientColor=none;fillColor=#2875E2;strokeColor=#ffffff;dashed=0;verticalLabelPosition=bottom;verticalAlign=top;align=center;html=1;fontSize=12;fontStyle=0;aspect=fixed;pointerEvents=1;shape=mxgraph.kubernetes.icon;prIcon=pod;labelBackgroundColor=#ffffff;" vertex="1" parent="1">
          <mxGeometry x="220" y="270" width="50" height="50" as="geometry" />
        </mxCell>
        <mxCell id="Bv-M9xPKziIz36aq1z2k-60" style="edgeStyle=orthogonalEdgeStyle;rounded=0;orthogonalLoop=1;jettySize=auto;html=1;" edge="1" parent="1" source="Bv-M9xPKziIz36aq1z2k-3" target="Bv-M9xPKziIz36aq1z2k-13">
          <mxGeometry relative="1" as="geometry" />
        </mxCell>
        <mxCell id="Bv-M9xPKziIz36aq1z2k-3" value="&lt;font data-font-src=&quot;https://fonts.googleapis.com/css?family=Roboto+Condensed&quot; face=&quot;Roboto Condensed&quot;&gt;send-notification-service&lt;/font&gt;" style="outlineConnect=0;fontColor=#232F3E;gradientColor=none;fillColor=#2875E2;strokeColor=#ffffff;dashed=0;verticalLabelPosition=bottom;verticalAlign=top;align=center;html=1;fontSize=12;fontStyle=0;aspect=fixed;pointerEvents=1;shape=mxgraph.kubernetes.icon;prIcon=pod;labelBackgroundColor=#ffffff;" vertex="1" parent="1">
          <mxGeometry x="389" y="270" width="50" height="50" as="geometry" />
        </mxCell>
        <mxCell id="Bv-M9xPKziIz36aq1z2k-41" style="edgeStyle=orthogonalEdgeStyle;rounded=0;orthogonalLoop=1;jettySize=auto;html=1;" edge="1" parent="1" source="Bv-M9xPKziIz36aq1z2k-6" target="Bv-M9xPKziIz36aq1z2k-40">
          <mxGeometry relative="1" as="geometry" />
        </mxCell>
        <mxCell id="Bv-M9xPKziIz36aq1z2k-53" value="&lt;font style=&quot;font-size: 8px;&quot; data-font-src=&quot;https://fonts.googleapis.com/css?family=Roboto+Condensed&quot; face=&quot;Roboto Condensed&quot;&gt;notificationcenter-db:5432&lt;/font&gt;" style="edgeLabel;html=1;align=center;verticalAlign=middle;resizable=0;points=[];" vertex="1" connectable="0" parent="Bv-M9xPKziIz36aq1z2k-41">
          <mxGeometry x="-0.2339" relative="1" as="geometry">
            <mxPoint as="offset" />
          </mxGeometry>
        </mxCell>
        <mxCell id="Bv-M9xPKziIz36aq1z2k-6" value="&lt;font data-font-src=&quot;https://fonts.googleapis.com/css?family=Roboto+Condensed&quot; face=&quot;Roboto Condensed&quot;&gt;notification-center-service&lt;/font&gt;" style="outlineConnect=0;fontColor=#232F3E;gradientColor=none;fillColor=#2875E2;strokeColor=#ffffff;dashed=0;verticalLabelPosition=bottom;verticalAlign=top;align=center;html=1;fontSize=12;fontStyle=0;aspect=fixed;pointerEvents=1;shape=mxgraph.kubernetes.icon;prIcon=pod;labelBackgroundColor=#ffffff;" vertex="1" parent="1">
          <mxGeometry x="680" y="270" width="50" height="50" as="geometry" />
        </mxCell>
        <mxCell id="Bv-M9xPKziIz36aq1z2k-11" value="&lt;font data-font-src=&quot;https://fonts.googleapis.com/css?family=Roboto+Condensed&quot; face=&quot;Roboto Condensed&quot;&gt;Kafka&lt;/font&gt;" style="sketch=0;points=[[0,0,0],[0.25,0,0],[0.5,0,0],[0.75,0,0],[1,0,0],[0,1,0],[0.25,1,0],[0.5,1,0],[0.75,1,0],[1,1,0],[0,0.25,0],[0,0.5,0],[0,0.75,0],[1,0.25,0],[1,0.5,0],[1,0.75,0]];outlineConnect=0;fontColor=#232F3E;gradientColor=#945DF2;gradientDirection=north;fillColor=#5A30B5;strokeColor=#ffffff;dashed=0;verticalLabelPosition=bottom;verticalAlign=top;align=center;html=1;fontSize=12;fontStyle=0;aspect=fixed;shape=mxgraph.aws4.resourceIcon;resIcon=mxgraph.aws4.managed_streaming_for_kafka;" vertex="1" parent="1">
          <mxGeometry x="530" y="270" width="50" height="50" as="geometry" />
        </mxCell>
        <mxCell id="Bv-M9xPKziIz36aq1z2k-57" style="edgeStyle=orthogonalEdgeStyle;rounded=0;orthogonalLoop=1;jettySize=auto;html=1;" edge="1" parent="1" source="Bv-M9xPKziIz36aq1z2k-12" target="Bv-M9xPKziIz36aq1z2k-2">
          <mxGeometry relative="1" as="geometry" />
        </mxCell>
        <mxCell id="Bv-M9xPKziIz36aq1z2k-59" value="&lt;font style=&quot;font-size: 8px;&quot; data-font-src=&quot;https://fonts.googleapis.com/css?family=Roboto+Condensed&quot; face=&quot;Roboto Condensed&quot;&gt;deposit-db:5432&lt;/font&gt;" style="edgeLabel;html=1;align=center;verticalAlign=middle;resizable=0;points=[];" vertex="1" connectable="0" parent="Bv-M9xPKziIz36aq1z2k-57">
          <mxGeometry x="-0.0188" relative="1" as="geometry">
            <mxPoint as="offset" />
          </mxGeometry>
        </mxCell>
        <mxCell id="Bv-M9xPKziIz36aq1z2k-12" value="&lt;font data-font-src=&quot;https://fonts.googleapis.com/css?family=Roboto+Condensed&quot; face=&quot;Roboto Condensed&quot;&gt;deposit-db&lt;/font&gt;" style="image;aspect=fixed;html=1;points=[];align=center;fontSize=12;image=img/lib/azure2/databases/Azure_Database_PostgreSQL_Server.svg;" vertex="1" parent="1">
          <mxGeometry x="225" y="139.11" width="40" height="53.33" as="geometry" />
        </mxCell>
        <mxCell id="Bv-M9xPKziIz36aq1z2k-68" style="edgeStyle=orthogonalEdgeStyle;rounded=0;orthogonalLoop=1;jettySize=auto;html=1;" edge="1" parent="1" source="Bv-M9xPKziIz36aq1z2k-13" target="Bv-M9xPKziIz36aq1z2k-67">
          <mxGeometry relative="1" as="geometry" />
        </mxCell>
        <mxCell id="Bv-M9xPKziIz36aq1z2k-13" value="&lt;font data-font-src=&quot;https://fonts.googleapis.com/css?family=Roboto+Condensed&quot; face=&quot;Roboto Condensed&quot;&gt;OneSignal&lt;/font&gt;" style="aspect=fixed;perimeter=ellipsePerimeter;html=1;align=center;shadow=0;dashed=0;fontColor=#4277BB;labelBackgroundColor=#ffffff;fontSize=12;spacingTop=3;image;image=img/lib/ibm/management/provider_cloud_portal_service.svg;" vertex="1" parent="1">
          <mxGeometry x="389" y="450" width="50" height="50" as="geometry" />
        </mxCell>
        <mxCell id="Bv-M9xPKziIz36aq1z2k-14" style="edgeStyle=orthogonalEdgeStyle;rounded=0;orthogonalLoop=1;jettySize=auto;html=1;entryX=0;entryY=0.5;entryDx=0;entryDy=0;entryPerimeter=0;" edge="1" parent="1" source="Bv-M9xPKziIz36aq1z2k-1" target="Bv-M9xPKziIz36aq1z2k-2">
          <mxGeometry relative="1" as="geometry" />
        </mxCell>
        <mxCell id="Bv-M9xPKziIz36aq1z2k-36" value="&lt;font style=&quot;font-size: 8px;&quot; data-font-src=&quot;https://fonts.googleapis.com/css?family=Roboto+Condensed&quot; face=&quot;Roboto Condensed&quot;&gt;HTTPS: 443&lt;br&gt;Token HMAC&lt;/font&gt;" style="edgeLabel;html=1;align=center;verticalAlign=middle;resizable=0;points=[];" vertex="1" connectable="0" parent="Bv-M9xPKziIz36aq1z2k-14">
          <mxGeometry x="-0.1579" relative="1" as="geometry">
            <mxPoint as="offset" />
          </mxGeometry>
        </mxCell>
        <mxCell id="Bv-M9xPKziIz36aq1z2k-27" value="AWS Cloud" style="points=[[0,0],[0.25,0],[0.5,0],[0.75,0],[1,0],[1,0.25],[1,0.5],[1,0.75],[1,1],[0.75,1],[0.5,1],[0.25,1],[0,1],[0,0.75],[0,0.5],[0,0.25]];outlineConnect=0;gradientColor=none;html=1;whiteSpace=wrap;fontSize=12;fontStyle=0;container=0;pointerEvents=0;collapsible=0;recursiveResize=0;shape=mxgraph.aws4.group;grIcon=mxgraph.aws4.group_aws_cloud_alt;strokeColor=#232F3E;fillColor=none;verticalAlign=top;align=left;spacingLeft=30;fontColor=#232F3E;dashed=0;" vertex="1" parent="1">
          <mxGeometry x="17" y="100" width="793" height="300" as="geometry" />
        </mxCell>
        <mxCell id="Bv-M9xPKziIz36aq1z2k-40" value="&lt;font data-font-src=&quot;https://fonts.googleapis.com/css?family=Roboto+Condensed&quot; face=&quot;Roboto Condensed&quot;&gt;NotificationCenterDB&lt;/font&gt;" style="image;aspect=fixed;html=1;points=[];align=center;fontSize=12;image=img/lib/azure2/databases/Azure_Database_PostgreSQL_Server.svg;" vertex="1" parent="1">
          <mxGeometry x="685" y="132" width="40" height="53.33" as="geometry" />
        </mxCell>
        <mxCell id="Bv-M9xPKziIz36aq1z2k-45" style="edgeStyle=orthogonalEdgeStyle;rounded=0;orthogonalLoop=1;jettySize=auto;html=1;entryX=0;entryY=0.5;entryDx=0;entryDy=0;entryPerimeter=0;" edge="1" parent="1" source="Bv-M9xPKziIz36aq1z2k-3" target="Bv-M9xPKziIz36aq1z2k-11">
          <mxGeometry relative="1" as="geometry" />
        </mxCell>
        <mxCell id="Bv-M9xPKziIz36aq1z2k-54" value="&lt;font style=&quot;font-size: 8px;&quot; data-font-src=&quot;https://fonts.googleapis.com/css?family=Roboto+Condensed&quot; face=&quot;Roboto Condensed&quot;&gt;TCP&lt;/font&gt;" style="edgeLabel;html=1;align=center;verticalAlign=middle;resizable=0;points=[];" vertex="1" connectable="0" parent="Bv-M9xPKziIz36aq1z2k-45">
          <mxGeometry x="-0.146" y="1" relative="1" as="geometry">
            <mxPoint as="offset" />
          </mxGeometry>
        </mxCell>
        <mxCell id="Bv-M9xPKziIz36aq1z2k-46" style="edgeStyle=orthogonalEdgeStyle;rounded=0;orthogonalLoop=1;jettySize=auto;html=1;entryX=0;entryY=0.5;entryDx=0;entryDy=0;entryPerimeter=0;" edge="1" parent="1" source="Bv-M9xPKziIz36aq1z2k-11" target="Bv-M9xPKziIz36aq1z2k-6">
          <mxGeometry relative="1" as="geometry" />
        </mxCell>
        <mxCell id="Bv-M9xPKziIz36aq1z2k-55" value="&lt;font style=&quot;font-size: 8px;&quot; data-font-src=&quot;https://fonts.googleapis.com/css?family=Roboto+Condensed&quot; face=&quot;Roboto Condensed&quot;&gt;TCP&lt;/font&gt;" style="edgeLabel;html=1;align=center;verticalAlign=middle;resizable=0;points=[];" vertex="1" connectable="0" parent="Bv-M9xPKziIz36aq1z2k-46">
          <mxGeometry x="-0.1429" y="1" relative="1" as="geometry">
            <mxPoint as="offset" />
          </mxGeometry>
        </mxCell>
        <mxCell id="Bv-M9xPKziIz36aq1z2k-50" value="&lt;div style=&quot;&quot;&gt;&lt;font face=&quot;Roboto Condensed&quot;&gt;deposit-notification-daily&lt;br&gt;(Event Brigde)&lt;/font&gt;&lt;/div&gt;" style="sketch=0;outlineConnect=0;fontColor=#232F3E;gradientColor=none;fillColor=#E7157B;strokeColor=none;dashed=0;verticalLabelPosition=bottom;verticalAlign=top;align=center;html=1;fontSize=12;fontStyle=0;aspect=fixed;pointerEvents=1;shape=mxgraph.aws4.eventbridge_scheduler;" vertex="1" parent="1">
          <mxGeometry x="75" y="138.66" width="40" height="40" as="geometry" />
        </mxCell>
        <mxCell id="Bv-M9xPKziIz36aq1z2k-56" style="edgeStyle=orthogonalEdgeStyle;rounded=0;orthogonalLoop=1;jettySize=auto;html=1;entryX=0.5;entryY=0;entryDx=0;entryDy=0;entryPerimeter=0;" edge="1" parent="1" source="Bv-M9xPKziIz36aq1z2k-50" target="Bv-M9xPKziIz36aq1z2k-1">
          <mxGeometry relative="1" as="geometry" />
        </mxCell>
        <mxCell id="Bv-M9xPKziIz36aq1z2k-61" value="1" style="ellipse;whiteSpace=wrap;html=1;aspect=fixed;" vertex="1" parent="1">
          <mxGeometry x="160" y="250" width="20" height="20" as="geometry" />
        </mxCell>
        <mxCell id="Bv-M9xPKziIz36aq1z2k-63" value="5" style="ellipse;whiteSpace=wrap;html=1;aspect=fixed;" vertex="1" parent="1">
          <mxGeometry x="480" y="440" width="20" height="20" as="geometry" />
        </mxCell>
        <mxCell id="Bv-M9xPKziIz36aq1z2k-64" value="3" style="ellipse;whiteSpace=wrap;html=1;aspect=fixed;" vertex="1" parent="1">
          <mxGeometry x="545" y="240" width="20" height="20" as="geometry" />
        </mxCell>
        <mxCell id="Bv-M9xPKziIz36aq1z2k-65" value="2" style="ellipse;whiteSpace=wrap;html=1;aspect=fixed;" vertex="1" parent="1">
          <mxGeometry x="320" y="250" width="20" height="20" as="geometry" />
        </mxCell>
        <mxCell id="Bv-M9xPKziIz36aq1z2k-67" value="&lt;font data-font-src=&quot;https://fonts.googleapis.com/css?family=Roboto+Condensed&quot; face=&quot;Roboto Condensed&quot;&gt;Mobile Client&lt;/font&gt;" style="outlineConnect=0;gradientColor=none;fontColor=#545B64;strokeColor=none;fillColor=#879196;dashed=0;verticalLabelPosition=bottom;verticalAlign=top;align=center;html=1;fontSize=12;fontStyle=0;aspect=fixed;shape=mxgraph.aws4.illustration_notification;pointerEvents=1;labelBackgroundColor=#ffffff;" vertex="1" parent="1">
          <mxGeometry x="545" y="454.75" width="50" height="40.5" as="geometry" />
        </mxCell>
        <mxCell id="Bv-M9xPKziIz36aq1z2k-70" value="4" style="ellipse;whiteSpace=wrap;html=1;aspect=fixed;" vertex="1" parent="1">
          <mxGeometry x="760" y="230" width="20" height="20" as="geometry" />
        </mxCell>
      </root>
    </mxGraphModel>
  </diagram>
</mxfile>
